# AST/ASF file generated using VICON BodyLanguage
# -----------------------------------------------
:version 1.10
:name VICON
:units
  mass 1.0
  length 0.45
  angle deg
:documentation
   .ast/.asf automatically generated from VICON data using
   VICON BodyBuilder and BodyLanguage model FoxedUp or BRILLIANT.MOD
:root
   order TX TY TZ RX RY RZ
   axis XYZ
   position 0 0 0  
   orientation 0 0 0 
:bonedata
  begin
     id 1 
     name lhipjoint
     direction 0.521689 -0.742065 0.420928 
     length 2.47002 
     axis 0 0 0  XYZ
  end
  begin
     id 2 
     name lfemur
     direction 0.34202 -0.939693 0  
     length 7.24654  
     axis 0 0 20  XYZ
    dof rx ry rz
    limits (-160.0 20.0)
           (-70.0 70.0)
           (-60.0 70.0)
  end
  begin
     id 3 
     name ltibia
     direction 0.34202 -0.939693 0   
     length 8.04849   
     axis 0 0 20   XYZ
    dof rx
    limits (-10.0 170.0)
  end
  begin
     id 4 
     name lfoot
     direction 0.0745411 -0.2048 0.975961   
     length 1.72367   
     axis -90 7.62852e-016 20   XYZ
    dof rx rz
    limits (-45.0 90.0)
           (-70.0 20.0)
  end
  begin
     id 5 
     name ltoes
     direction 1.53556e-011 -4.21901e-011 1   
     length 0.87311   
     axis -90 7.62852e-016 20   XYZ
    dof rx
    limits (-90.0 20.0)
  end
  begin
     id 6 
     name rhipjoint
     direction -0.52849 -0.738415 0.418857   
     length 2.48223  
     axis 0 0 0  XYZ 
  end
  begin
     id 7 
     name rfemur
     direction -0.34202 -0.939693 0   
     length 7.15571   
     axis 0 0 -20   XYZ
    dof rx ry rz
    limits (-160.0 20.0)
           (-70.0 70.0)
           (-70.0 60.0)
  end
  begin
     id 8 
     name rtibia
     direction -0.34202 -0.939693 0   
     length 7.81659   
     axis 0 0 -20   XYZ
    dof rx
    limits (-10.0 170.0)
 end
 begin
     id 9 
     name rfoot
     direction -0.0917348 -0.252039 0.963359   
     length 1.84382  
     axis -90 -7.62852e-016 -20   XYZ
    dof rx rz
    limits (-45.0 90.0)
           (-20.0 70.0)
  end
  begin
     id 10 
     name rtoes
     direction -1.53551e-011 -4.21879e-011 1   
     length 0.927771   
     axis -90 -7.62852e-016 -20   XYZ
    dof rx
    limits (-90.0 20.0)
  end
  begin
     id 11 
     name lowerback
     direction 0.00583058 0.999822 0.0179296   
     length 2.1429   
     axis 0 0 0   XYZ
    dof rx ry rz
    limits (-20.0 45.0)
           (-30.0 30.0)
           (-30.0 30.0)
  end
  begin
     id 12 
     name upperback
     direction -0.0137999 0.999752 -0.0175071   
     length 2.14252   
     axis 0 0 0   XYZ
    dof rx ry rz
    limits (-20.0 45.0)
           (-30.0 30.0)
           (-30.0 30.0)
  end
  begin
     id 13 
     name thorax
     direction -0.0158036 0.99955 -0.0254909   
     length 2.1383   
     axis 0 0 0   XYZ
    dof rx ry rz
    limits (-20.0 45.0)
           (-30.0 30.0)
           (-30.0 30.0)
  end
  begin
     id 14 
     name lowerneck
     direction -0.0101179 0.999403 -0.0330262   
     length 1.65808   
     axis 0 0 0   XYZ
    dof rx ry rz
    limits (-20.0 45.0)
           (-30.0 30.0)
           (-30.0 30.0)
  end
  begin
     id 15 
     name upperneck
     direction 0.0497734 0.995978 -0.074501   
     length 1.5897   
     axis 0 0 0   XYZ
    dof rx ry rz
    limits (-20.0 45.0)
           (-30.0 30.0)
           (-30.0 30.0)
  end
  begin
     id 16
     name head
     direction 0.0189524 0.999519 -0.0245438  
     length 1.74024  
     axis 0 0 0   XYZ
    dof rx ry rz
    limits (-20.0 45.0)
           (-30.0 30.0)
           (-30.0 30.0)
  end
  begin
     id 17 
     name lclavicle
     direction 0.945604 0.324422 0.0241537  
     length 3.59089  
     axis 0 0 0   XYZ
    dof ry rz
    limits (-20.0 10.0)
           (0.0 20.0)
  end
  begin
     id 18 
     name lhumerus
     direction 1 -4.48964e-011 -2.63524e-027   
     length 5.2391   
     axis 180 -30 -90   XYZ
    dof rx ry rz
    limits (-60.0 90.0)
           (-90.0 90.0)
           (-90.0 90.0)
  end
  begin
     id 19
     name lradius
     direction 1 -4.48969e-011 3.86978e-028   
     length 3.31467   
     axis 180 -30 -90   XYZ
    dof rx
    limits (-10.0 170.0)
  end
  begin
     id 20
     name lwrist
     direction 1 -4.48963e-011 7.20928e-028   
     length 1.65734   
     axis -5.52449e-016 90 90   XYZ
    dof ry
    limits (-180.0 0.0)
 end
  begin
     id 21 
     name lhand
     direction 1 -4.48964e-011 1.44186e-027   
     length 0.9659   
     axis -9.20027e-016 90 90   XYZ
    dof rx rz
    limits (-90.0 90.0)
           (-45.0 45.0)
  end
  begin
     id 22 
     name lfingers
     direction 1 -4.48965e-011 2.88371e-027   
     length 0.778733   
     axis -1.84005e-015 90 90   XYZ
    dof rx
    limits (0.0 90.0)
  end
  begin
     id 23
     name lthumb
     direction 0.707107 -6.34931e-011 0.707107   
     length 1.11811   
     axis -90 45 2.85299e-015   XYZ
    dof rx rz
    limits (-45.0 45.0)
           (-45.0 45.0)
  end
  begin
     id 24 
     name rclavicle
     direction -0.923762 0.370785 0.0958234   
     length 3.54196  
     axis 0 0 0   XYZ 
    dof ry rz
    limits (-10.0 20.0)
           (-20.0 0.0)
  end
  begin
     id 25 
     name rhumerus
     direction -1 -4.48966e-011 1.18702e-017  
     length 5.30252   
     axis 180 30 90   XYZ
    dof rx ry rz
    limits (-90.0 60.0)
           (-90.0 90.0)
           (-90.0 90.0)
  end
  begin
     id 26 
     name rradius
     direction -1 -4.48966e-011 4.46736e-027   
     length 3.67875   
     axis 180 30 90   XYZ
    dof rx
    limits (-10.0 170.0)
  end
  begin
     id 27 
     name rwrist
     direction -1 -4.48966e-011 7.20928e-028   
     length 1.83937   
     axis -5.52449e-016 -90 -90   XYZ
    dof ry
    limits (-180.0 0.0)
  end
  begin
     id 28
     name rhand
     direction -1 -4.48973e-011 1.44186e-027   
     length 0.594811   
     axis -9.20027e-016 -90 -90   XYZ
    dof rx rz
    limits (-90.0 90.0)
           (-45.0 45.0)
  end
  begin
     id 29
     name rfingers
     direction -1 -4.48963e-011 2.88371e-027   
     length 0.479552   
     axis -1.84005e-015 -90 -90   XYZ
    dof rx
    limits (0.0 90.0)
  end
  begin
     id 30
     name rthumb
     direction -0.707107 -6.34932e-011 0.707107   
     length 0.688544   
     axis -90 -45 -2.85299e-015   XYZ
    dof rx rz
    limits (-45.0 45.0)
           (-45.0 45.0)
  end
:hierarchy
  begin
    root lhipjoint rhipjoint lowerback
    lhipjoint lfemur
    lfemur ltibia
    ltibia lfoot
    lfoot ltoes
    rhipjoint rfemur
    rfemur rtibia
    rtibia rfoot
    rfoot rtoes
    lowerback upperback
    upperback thorax
    thorax lowerneck lclavicle rclavicle
    lowerneck upperneck
    upperneck head
    lclavicle lhumerus
    lhumerus lradius
    lradius lwrist
    lwrist lhand lthumb
    lhand lfingers
    rclavicle rhumerus
    rhumerus rradius
    rradius rwrist
    rwrist rhand rthumb
    rhand rfingers
  end

#!OML:ASF E:\acrobat2\Project_11_07_03\Capture day 1\Session 1\Acrobat.ASF
:FULLY-SPECIFIED
:DEGREES
252
root 8.24077 18.1841 -31.7232 3.41773 25.0871 -0.743694
lowerback -5.94863 0.182641 -0.290791
upperback -2.42638 0.281437 -0.710342
thorax 0.840865 0.14484 -0.547462
lowerneck 1.07937 -4.40783 -1.68418
upperneck 3.22126 -6.01488 5.06794
head 1.03984 -2.97659 1.82329
rclavicle 2.08972e-014 6.36111e-015
rhumerus -38.7682 -0.82543 -85.1611
rradius 24.1034
rwrist 3.73521
rhand -4.98751 -42.8295
rfingers 7.12502
rthumb 20.8054 -71.7341
lclavicle 2.08972e-014 6.36111e-015
lhumerus -32.4919 -12.9899 89.995
lradius 18.6147
lwrist 9.90485
lhand -12.3537 -12.0487
lfingers 7.12502
lthumb 13.7161 17.4792
rfemur -1.21098 6.49433 14.1359
rtibia -0.102849
rfoot -27.5147 -33.8997
rtoes 23.5639
lfemur 3.13007 0.74744 -15.5869
ltibia 3.85779
lfoot -19.3745 2.03579
ltoes 28.5452
253
root 8.23918 18.1843 -31.7256 3.40705 25.0554 -0.83113
lowerback -5.92688 0.160022 -0.22154
upperback -2.4516 0.246746 -0.671797
thorax 0.802734 0.127309 -0.54913
lowerneck 1.08081 -4.33698 -1.6778
upperneck 3.18437 -5.91774 5.03355
head 1.02285 -2.92889 1.81258
rclavicle -3.13086e-014 -3.97569e-016
rhumerus -38.7688 -0.843706 -85.118
rradius 24.1137
rwrist 3.83622
rhand -4.90498 -42.7121
rfingers 7.12502
rthumb 20.8847 -71.6079
lclavicle -3.13086e-014 -3.97569e-016
lhumerus -32.5402 -12.9286 89.9839
lradius 18.6759
lwrist 9.95715
lhand -12.3417 -11.9074
lfingers 7.12502
lthumb 13.7277 17.6198
rfemur -1.28416 6.53319 14.2351
rtibia -0.0450135
rfoot -27.5737 -33.8545
rtoes 23.6731
lfemur 3.07374 0.799589 -15.4786
ltibia 3.89631
lfoot -19.4017 2.0455
ltoes 28.2736
254
root 8.23701 18.1834 -31.7278 3.41524 25.0353 -0.83643
lowerback -5.91499 0.169383 -0.234677
upperback -2.45812 0.259906 -0.678035
thorax 0.789501 0.133933 -0.547355
lowerneck 1.1177 -4.35968 -1.67134
upperneck 3.18444 -5.9488 5.05968
head 1.01848 -2.94455 1.82037
rclavicle -3.80921e-014 -8.34896e-015
rhumerus -38.7849 -1.0049 -85.0546
rradius 24.1439
rwrist 3.94877
rhand -4.8959 -42.7185
rfingers 7.12502
rthumb 20.8934 -71.6134
lclavicle -3.80921e-014 -8.34896e-015
lhumerus -32.5578 -12.9973 89.989
lradius 18.7315
lwrist 10.0212
lhand -12.2479 -11.826
lfingers 7.12502
lthumb 13.8181 17.695
rfemur -1.31824 6.60594 14.2486
rtibia -0.0242145
rfoot -27.645 -33.8322
rtoes 23.85
lfemur 3.02347 0.799325 -15.4653
ltibia 3.95537
lfoot -19.3986 2.05996
ltoes 28.2204
255
root 8.23551 18.1829 -31.7291 3.39087 25.042 -0.903876
lowerback -5.90055 0.166869 -0.175339
upperback -2.45428 0.25306 -0.667696
thorax 0.785569 0.130212 -0.570515
lowerneck 1.09674 -4.38748 -1.70045
upperneck 3.24239 -5.98943 5.09693
head 1.04424 -2.96375 1.83597
rclavicle 6.53505e-015 -1.23246e-014
rhumerus -38.798 -1.10928 -85.0139
rradius 24.1852
rwrist 4.07196
rhand -4.89118 -42.7671
rfingers 7.12502
rthumb 20.898 -71.6615
lclavicle 6.53505e-015 -1.23246e-014
lhumerus -32.5634 -13.0794 90.0068
lradius 18.8053
lwrist 10.0664
lhand -12.2785 -11.7547
lfingers 7.12502
lthumb 13.7886 17.7683
rfemur -1.32644 6.64493 14.3295
rtibia -0.0275338
rfoot -27.7312 -33.8208
rtoes 23.9366
lfemur 2.99396 0.718864 -15.3869
ltibia 3.99051
lfoot -19.4177 2.11124
ltoes 28.4491
256
root 8.23681 18.1833 -31.7317 3.36123 25.053 -0.959869
lowerback -5.87183 0.119544 -0.113703
upperback -2.44374 0.185918 -0.623747
thorax 0.779895 0.0964466 -0.564361
lowerneck 1.02642 -4.35632 -1.80322
upperneck 3.31408 -5.95148 5.11539
head 1.08169 -2.94401 1.85803
rclavicle -2.74571e-014 -7.15625e-015
rhumerus -38.779 -0.969274 -85.0299
rradius 24.2653
rwrist 4.04794
rhand -4.88142 -42.8026
rfingers 7.12502
rthumb 20.9073 -71.6959
lclavicle -2.74571e-014 -7.15625e-015
lhumerus -32.5526 -12.967 90.0014
lradius 18.8419
lwrist 10.0585
lhand -12.35 -11.7155
lfingers 7.12502
lthumb 13.7197 17.8122
rfemur -1.33299 6.52742 14.3739
rtibia -0.0199124
rfoot -27.5972 -33.7773
rtoes 23.8285
lfemur 3.00388 0.711821 -15.3373
ltibia 3.9757
lfoot -19.472 2.04961
ltoes 29.0266
257
root 8.23833 18.1831 -31.7338 3.37803 25.0794 -0.883942
lowerback -5.84786 0.0839104 -0.17955
upperback -2.43094 0.14209 -0.636208
thorax 0.779213 0.0748159 -0.543037
lowerneck 0.972767 -4.34407 -1.79528
upperneck 3.35455 -5.9361 5.09909
head 1.10217 -2.93514 1.85002
rclavicle 3.14825e-014 -1.59028e-015
rhumerus -38.7718 -0.885536 -85.0757
rradius 24.3573
rwrist 3.93006
rhand -4.89151 -42.749
rfingers 7.12502
rthumb 20.8976 -71.6434
lclavicle 3.14825e-014 -1.59028e-015
lhumerus -32.5058 -12.8036 89.9151
lradius 18.7984
lwrist 9.87573
lhand -12.3123 -11.9082
lfingers 7.12502
lthumb 13.756 17.6171
rfemur -1.31224 6.40766 14.275
rtibia -0.0313078
rfoot -27.3937 -33.7838
rtoes 23.5161
lfemur 3.01292 0.754559 -15.4309
ltibia 3.97718
lfoot -19.4878 1.90744
ltoes 29.6323
258
root 8.23849 18.1822 -31.7348 3.41624 25.0616 -0.739609
lowerback -5.81828 0.0940919 -0.309516
upperback -2.43098 0.163315 -0.701741
thorax 0.762722 0.0858611 -0.536068
lowerneck 1.00025 -4.36817 -1.76262
upperneck 3.36357 -5.97059 5.16702
head 1.10308 -2.95144 1.86635
rclavicle 4.09745e-014 -5.1684e-015
rhumerus -38.8715 -0.937026 -85.1287
rradius 24.5856
rwrist 3.77962
rhand -4.8323 -42.8846
rfingers 7.12502
rthumb 20.9545 -71.7727
lclavicle 4.09745e-014 -5.1684e-015
lhumerus -32.5012 -12.8082 89.8439
lradius 18.7837
lwrist 9.71987
lhand -12.1539 -12.1417
lfingers 7.12502
lthumb 13.9087 17.3732
rfemur -1.29102 6.39426 14.114
rtibia -0.0382035
rfoot -27.3331 -33.8013
rtoes 23.3912
lfemur 3.01659 0.759646 -15.5972
ltibia 4.01218
lfoot -19.4498 1.8859
ltoes 29.8768
